<svg width="28" height="28" viewBox="0 0 24 24" fill="none" xmlns="http://www.w3.org/2000/svg">
    <path d="M0.658769 0.658769C1.08071 0.236959 1.6529 0 2.24952 0C2.84614 0 3.41833 0.236959 3.84027 0.658769L11.7963 8.61477L19.7523 0.658769C20.1766 0.248914 20.745 0.0221264 21.3349 0.0272529C21.9249 0.0323793 22.4892 0.26901 22.9064 0.686178C23.3235 1.10335 23.5602 1.66767 23.5653 2.25762C23.5704 2.84756 23.3436 3.41592 22.9338 3.84027L14.9778 11.7963L22.9338 19.7523C23.3436 20.1766 23.5704 20.745 23.5653 21.3349C23.5602 21.9249 23.3235 22.4892 22.9064 22.9064C22.4892 23.3235 21.9249 23.5602 21.3349 23.5653C20.745 23.5704 20.1766 23.3436 19.7523 22.9338L11.7963 14.9778L3.84027 22.9338C3.41592 23.3436 2.84756 23.5704 2.25762 23.5653C1.66767 23.5602 1.10335 23.3235 0.686178 22.9064C0.26901 22.4892 0.0323793 21.9249 0.0272529 21.3349C0.0221264 20.745 0.248914 20.1766 0.658769 19.7523L8.61477 11.7963L0.658769 3.84027C0.236959 3.41833 0 2.84614 0 2.24952C0 1.6529 0.236959 1.08071 0.658769 0.658769Z" fill="black"/>
</svg>