<svg width="24" height="24" viewBox="0 0 16 16" fill="none" xmlns="http://www.w3.org/2000/svg">
<g clip-path="url(#clip0_1_34)">
<path fill-rule="evenodd" clip-rule="evenodd" d="M13.3333 0.666626C14.4379 0.666626 15.3333 1.56206 15.3333 2.66663V13.3333C15.3333 14.4379 14.4379 15.3333 13.3333 15.3333H2.66666C1.56209 15.3333 0.666656 14.4379 0.666656 13.3333V2.66663C0.666656 1.56206 1.56209 0.666626 2.66666 0.666626H13.3333ZM13.3333 1.99996C13.7015 1.99996 14 2.29844 14 2.66663V13.3333C14 13.7015 13.7015 14 13.3333 14H9.99999V9.33323H11.3841C11.6711 9.33323 11.9258 9.14963 12.0166 8.87736L12.3119 7.99136C12.4199 7.66756 12.1789 7.33323 11.8376 7.33323H9.99999V5.99991C9.99999 5.66657 10.3333 5.33324 10.6667 5.33324H12C12.3682 5.33324 12.6667 5.03476 12.6667 4.66657V4.20925C12.6667 3.9939 12.5291 3.80083 12.3209 3.74587C11.447 3.51526 10.6667 3.51526 10.6667 3.51526C8.99999 3.51526 7.99999 4.66657 7.99999 5.66657V7.33323H6.66666C6.29847 7.33323 5.99999 7.63169 5.99999 7.99989V8.66656C5.99999 9.03476 6.29846 9.33323 6.66666 9.33323H7.99999V14H2.66666C2.29847 14 1.99999 13.7015 1.99999 13.3333V2.66663C1.99999 2.29844 2.29847 1.99996 2.66666 1.99996H13.3333Z" fill="#0F0F0F"/>
</g>
<defs>
<clipPath id="clip0_1_34">
<rect width="16" height="16" fill="white"/>
</clipPath>
</defs>
</svg>
