<svg width="24" height="24" viewBox="0 0 16 16" fill="none" xmlns="http://www.w3.org/2000/svg">
<g clip-path="url(#clip0_1_30)">
<path fill-rule="evenodd" clip-rule="evenodd" d="M8 12C10.2091 12 12 10.2091 12 8C12 5.79086 10.2091 4 8 4C5.79086 4 4 5.79086 4 8C4 10.2091 5.79086 12 8 12ZM8 10.6667C9.47273 10.6667 10.6667 9.47273 10.6667 8C10.6667 6.52724 9.47273 5.33333 8 5.33333C6.52724 5.33333 5.33333 6.52724 5.33333 8C5.33333 9.47273 6.52724 10.6667 8 10.6667Z" fill="#0F0F0F"/>
<path d="M12 3.33337C11.6318 3.33337 11.3333 3.63185 11.3333 4.00004C11.3333 4.36823 11.6318 4.66671 12 4.66671C12.3682 4.66671 12.6667 4.36823 12.6667 4.00004C12.6667 3.63185 12.3682 3.33337 12 3.33337Z" fill="#0F0F0F"/>
<path fill-rule="evenodd" clip-rule="evenodd" d="M1.10263 2.85067C0.666656 3.70631 0.666656 4.82642 0.666656 7.06663V8.93329C0.666656 11.1735 0.666656 12.2936 1.10263 13.1492C1.48612 13.9019 2.09804 14.5138 2.8507 14.8973C3.70634 15.3333 4.82645 15.3333 7.06666 15.3333H8.93332C11.1735 15.3333 12.2937 15.3333 13.1493 14.8973C13.9019 14.5138 14.5139 13.9019 14.8973 13.1492C15.3333 12.2936 15.3333 11.1735 15.3333 8.93329V7.06663C15.3333 4.82642 15.3333 3.70631 14.8973 2.85067C14.5139 2.09801 13.9019 1.48609 13.1493 1.1026C12.2937 0.666626 11.1735 0.666626 8.93332 0.666626H7.06666C4.82645 0.666626 3.70634 0.666626 2.8507 1.1026C2.09804 1.48609 1.48612 2.09801 1.10263 2.85067ZM8.93332 1.99996H7.06666C5.92455 1.99996 5.14816 2.001 4.54804 2.05003C3.96348 2.09779 3.66455 2.18435 3.45602 2.29061C2.95425 2.54627 2.5463 2.95422 2.29064 3.45599C2.18438 3.66452 2.09782 3.96345 2.05006 4.54801C2.00103 5.14813 1.99999 5.92452 1.99999 7.06663V8.93329C1.99999 10.0754 2.00103 10.8518 2.05006 11.4519C2.09782 12.0365 2.18438 12.3354 2.29064 12.544C2.5463 13.0457 2.95425 13.4536 3.45602 13.7093C3.66455 13.8156 3.96348 13.9022 4.54804 13.9499C5.14816 13.9989 5.92455 14 7.06666 14H8.93332C10.0755 14 10.8518 13.9989 11.4519 13.9499C12.0365 13.9022 12.3355 13.8156 12.544 13.7093C13.0457 13.4536 13.4537 13.0457 13.7093 12.544C13.8156 12.3354 13.9022 12.0365 13.9499 11.4519C13.9989 10.8518 14 10.0754 14 8.93329V7.06663C14 5.92452 13.9989 5.14813 13.9499 4.54801C13.9022 3.96345 13.8156 3.66452 13.7093 3.45599C13.4537 2.95422 13.0457 2.54627 12.544 2.29061C12.3355 2.18435 12.0365 2.09779 11.4519 2.05003C10.8518 2.001 10.0755 1.99996 8.93332 1.99996Z" fill="#0F0F0F"/>
</g>
<defs>
<clipPath id="clip0_1_30">
<rect width="16" height="16" fill="white"/>
</clipPath>
</defs>
</svg>
