<svg width="24" height="24" viewBox="0 0 16 16" fill="none" xmlns="http://www.w3.org/2000/svg">
<g clip-path="url(#clip0_1_36)">
<path d="M4.33334 5.33337C4.88563 5.33337 5.33334 4.88566 5.33334 4.33337C5.33334 3.78109 4.88563 3.33337 4.33334 3.33337C3.78106 3.33337 3.33334 3.78109 3.33334 4.33337C3.33334 4.88566 3.78106 5.33337 4.33334 5.33337Z" fill="#0F0F0F"/>
<path d="M3.33334 6.66667C3.33334 6.29848 3.63182 6 4.00001 6H4.66668C5.03486 6 5.33334 6.29847 5.33334 6.66667V12C5.33334 12.3682 5.03486 12.6667 4.66668 12.6667H4.00001C3.63182 12.6667 3.33334 12.3682 3.33334 12V6.66667Z" fill="#0F0F0F"/>
<path d="M7.33332 12.6667H7.99999C8.36819 12.6667 8.66666 12.3682 8.66666 12V9C8.66666 8 10.6667 7.33333 10.6667 8.66667V12.0003C10.6667 12.3685 10.9651 12.6667 11.3333 12.6667H12C12.3682 12.6667 12.6667 12.3682 12.6667 12V8C12.6667 6.66667 11.6667 6 10.3333 6C8.99999 6 8.66666 7 8.66666 7V6.66667C8.66666 6.29847 8.36819 6 7.99999 6H7.33332C6.96512 6 6.66666 6.29848 6.66666 6.66667V12C6.66666 12.3682 6.96512 12.6667 7.33332 12.6667Z" fill="#0F0F0F"/>
<path fill-rule="evenodd" clip-rule="evenodd" d="M13.3333 0.666626C14.4379 0.666626 15.3333 1.56206 15.3333 2.66663V13.3333C15.3333 14.4379 14.4379 15.3333 13.3333 15.3333H2.66666C1.56209 15.3333 0.666656 14.4379 0.666656 13.3333V2.66663C0.666656 1.56206 1.56209 0.666626 2.66666 0.666626H13.3333ZM13.3333 1.99996C13.7015 1.99996 14 2.29844 14 2.66663V13.3333C14 13.7015 13.7015 14 13.3333 14H2.66666C2.29847 14 1.99999 13.7015 1.99999 13.3333V2.66663C1.99999 2.29844 2.29847 1.99996 2.66666 1.99996H13.3333Z" fill="#0F0F0F"/>
</g>
<defs>
<clipPath id="clip0_1_36">
<rect width="16" height="16" fill="white"/>
</clipPath>
</defs>
</svg>
