<svg width="300" height="300" viewBox="0 0 300 300" fill="none" xmlns="http://www.w3.org/2000/svg">
<rect width="300" height="300" rx="20" fill="#D9D9D9"/>
<path d="M158.285 169.078L150.709 161.564C147.226 158.111 145.485 156.385 143.48 155.737C141.717 155.167 139.819 155.167 138.055 155.737C136.051 156.385 134.31 158.111 130.827 161.564L113.185 179.333M158.285 169.078L159.791 167.584C163.347 164.058 165.125 162.295 167.165 161.652C168.958 161.086 170.886 161.108 172.666 161.715C174.691 162.406 176.427 164.209 179.901 167.815L183.588 171.559M158.285 169.078L175.735 186.836M113.185 179.333C113.32 180.482 113.555 181.384 113.962 182.182C114.808 183.843 116.157 185.192 117.818 186.038C119.705 187 122.176 187 127.118 187H169.471C172.212 187 174.192 187 175.735 186.836M113.185 179.333C113 177.764 113 175.735 113 172.882V130.529C113 125.588 113 123.117 113.962 121.229C114.808 119.569 116.157 118.219 117.818 117.373C119.705 116.412 122.176 116.412 127.118 116.412H143.882M175.735 186.836C176.974 186.704 177.93 186.467 178.771 186.038C180.431 185.192 181.781 183.843 182.626 182.182C183.588 180.295 183.588 177.824 183.588 172.882V156.118M174.765 138.471V125.235M174.765 125.235V112M174.765 125.235H188M174.765 125.235H161.529" stroke="white" stroke-width="5" stroke-linecap="round" stroke-linejoin="round"/>
</svg>
