
<svg width="26" height="28" viewBox="0 0 26 20" fill="none" xmlns="http://www.w3.org/2000/svg">
    <path fill-rule="evenodd" clip-rule="evenodd" d="M26 2.16264C26 3.14017 25.5011 3.93264 24.8857 3.93264H1.11429C0.498888 3.93264 0 3.14017 0 2.16264C0 1.1851 0.498888 0.392639 1.11429 0.392639H24.8857C25.5011 0.392639 26 1.1851 26 2.16264Z" fill="#000"/>
    <path fill-rule="evenodd" clip-rule="evenodd" d="M26 9.24456C26 10.2223 25.5011 11.0149 24.8857 11.0149H1.11429C0.498888 11.0149 0 10.2223 0 9.24456C0 8.26684 0.498888 7.47418 1.11429 7.47418H24.8857C25.5011 7.47418 26 8.26684 26 9.24456Z" fill="#000"/>
    <path fill-rule="evenodd" clip-rule="evenodd" d="M26 18.096C26 19.0736 25.5011 19.866 24.8857 19.866H1.11429C0.498888 19.866 0 19.0736 0 18.096C0 17.1185 0.498888 16.326 1.11429 16.326H24.8857C25.5011 16.326 26 17.1185 26 18.096Z" fill="#000"/>
</svg>