<svg width="38" height="38" viewBox="0 0 38 38" fill="none" xmlns="http://www.w3.org/2000/svg">
<circle cx="19" cy="19" r="19" fill="#2C86EE"/>
<path d="M20.9193 15.9273C20.6737 15.6338 20.3803 15.4005 20.0564 15.2413C19.7325 15.082 19.3846 15 19.0331 15C18.6816 15 18.3337 15.082 18.0098 15.2413C17.6859 15.4005 17.3925 15.6338 17.1469 15.9273L13.3745 20.3316C13.1328 20.6194 12.9983 21.007 13 21.4101C13.0018 21.8132 13.1397 22.1992 13.3838 22.4842C13.6279 22.7692 13.9585 22.9302 14.3038 22.9322C14.649 22.9343 14.981 22.7772 15.2276 22.495L19 18.0908L22.7724 22.495C23.019 22.7772 23.351 22.9343 23.6962 22.9322C24.0415 22.9302 24.3721 22.7692 24.6162 22.4842C24.8603 22.1992 24.9982 21.8132 25 21.4101C25.0017 21.007 24.8672 20.6194 24.6255 20.3316L20.9193 15.9273Z" fill="white"/>
</svg>
