<svg id="Ebene_1" data-name="Ebene 1" xmlns="http://www.w3.org/2000/svg" viewBox="0 0 826.02 109.94"><defs><style>.cls-1{fill:#1d1d1b;}</style></defs><path class="cls-1" d="M212,61.11H243l-6,28.91c-8.27,7.15-19.82,11.34-29.73,11.34-17.77,0-31.35-13.59-31.35-30.44,0-22.78,21.86-42.19,44.94-42.19,10.62,0,20.33,4.91,25.84,12.06l-12.25,9.09c-3.07-4.8-9-7.46-14.82-7.46-14.91,0-28.49,13.79-28.49,28.09a17.2,17.2,0,0,0,17.46,17.16c5,0,10.63-2,15.22-5.21L225.6,73H209.46Z" transform="translate(-9.16 -11.59)"/><path class="cls-1" d="M294.14,85.42c2.45,3.37,5.31,7,8.37,11.24l-12.66,4.7-5.42-7.46c-6.74,4.8-13.89,7.46-21.75,7.46-12.26,0-20.53-6.23-20.53-16.75,0-12.67,8-19.31,20.12-24.31-1.84-3.58-2.86-6.44-2.86-9.71C259.41,38,270.34,29,282.29,29c10.52,0,17.26,6.44,17.26,15.22,0,10.83-8.27,15.73-20.43,20.84,2.35,3.27,5,6.94,8.18,11.23a97.52,97.52,0,0,0,10.11-13.68L307.52,69A145.66,145.66,0,0,1,294.14,85.42Zm-16-.61c-4.29-6-7.56-10.83-10.21-15-6.54,3.16-11,7.45-11,13.38,0,4.39,3.47,6.84,8.07,6.84C269.11,90,273.61,88.08,278.1,84.81ZM272,49.88a14.12,14.12,0,0,0,1.74,6.43c7.76-2.65,13.18-5.72,13.18-12.05,0-2.76-1.64-4.49-4.6-4.49C277,39.77,272,44.46,272,49.88Z" transform="translate(-9.16 -11.59)"/><path class="cls-1" d="M300,89.41l10.11-9.71a29.06,29.06,0,0,0,20.23,8.89c9.5,0,15-4.8,15-10.11,0-3.27-3-4.6-12.36-7-13.68-3.37-22.27-6.84-22.27-18,0-14.19,12.26-24.82,30.34-24.82,9.6,0,19.31,3.68,25.64,10L357.26,49a27.29,27.29,0,0,0-17.67-7.46c-8.37,0-13.48,4.7-13.48,9.91,0,3.37,3.27,4.8,12.46,7.05C354,62,360.63,66.32,360.63,76.33c0,14.92-13.48,25-31.46,25C317.73,101.36,306.6,96.66,300,89.41Z" transform="translate(-9.16 -11.59)"/><path class="cls-1" d="M397.2,30h15.12l-14.61,70.17H382.59Z" transform="translate(-9.16 -11.59)"/><path class="cls-1" d="M434.48,43.54H412.62L415.48,30h58.84l-2.86,13.58H449.6l-11.75,56.59H422.73Z" transform="translate(-9.16 -11.59)"/><path class="cls-1" d="M517.32,61.11h30.95l-6,28.91c-8.27,7.15-19.81,11.34-29.72,11.34-17.78,0-31.36-13.59-31.36-30.44,0-22.78,21.86-42.19,44.94-42.19,10.62,0,20.33,4.91,25.84,12.06l-12.25,9.09c-3.07-4.8-9-7.46-14.81-7.46-14.92,0-28.5,13.79-28.5,28.09a17.2,17.2,0,0,0,17.46,17.16c5,0,10.63-2,15.22-5.21L530.9,73H514.76Z" transform="translate(-9.16 -11.59)"/><path class="cls-1" d="M596.78,75.82l14.71,24.31H594.74L581,77.35H569.51l-4.8,22.78h-15L564.3,30h31c13.38,0,22.37,8.07,22.37,19.92C617.62,62,608.94,72,596.78,75.82ZM572.37,63.56h15c7.86,0,15-6.12,15-12.66,0-4.29-4-7.15-10.21-7.15H576.56Z" transform="translate(-9.16 -11.59)"/><path class="cls-1" d="M619.46,71.12c0-22.88,21.65-42.39,44.53-42.39,18.08,0,31.06,13.28,31.06,30.24,0,22.78-21.76,42.39-44.64,42.39C632.84,101.36,619.46,87.77,619.46,71.12Zm60.26-11.64c0-9.7-7-17.06-17-17.06-14.71,0-28,13.79-28,28.09a16.92,16.92,0,0,0,17.06,17.16C666.55,87.67,679.72,73.37,679.72,59.48Z" transform="translate(-9.16 -11.59)"/><path class="cls-1" d="M699.44,69.18,707.61,30h15.12L714.45,69.8c-2.24,10.72,2.86,17.87,12.26,17.87,10.11,0,19.1-8.27,21.35-19.1L756.13,30h15l-8.37,40.45c-3.78,18.38-19.1,31-37.39,31C706.28,101.36,695.66,87.77,699.44,69.18Z" transform="translate(-9.16 -11.59)"/><path class="cls-1" d="M781.87,30h31c13.38,0,22.37,8.07,22.37,19.92,0,15.52-14.1,27.47-31.46,27.47H787.08l-4.8,22.78h-15ZM805,63.56c7.87,0,15-6.12,15-12.66,0-4.29-4-7.15-10.22-7.15H794.12l-4.18,19.81Z" transform="translate(-9.16 -11.59)"/><path class="cls-1" d="M137.58,28.15c12.65,0,22.89-7.41,22.89-16.56l-71,.19c-3.71,0-6.11.78-7.89,3.53L65,41.72H49.66c-.43,0-1.63,0-1.67,0a39.86,39.86,0,0,0-27.09,68.1h0c.28.29.57.57.86.84a39.74,39.74,0,0,0,55.06-.45,10.09,10.09,0,0,0,2.93-5.79V88.87h28.48A17.71,17.71,0,0,0,114,87.31a11.8,11.8,0,0,0,3-2.93c1.68-2.09,17.31-30.12,17.31-30.12S138,48.35,138,41.72H83.59l8.49-13.57Zm-23,30-8.07,14.15H58.31A16.55,16.55,0,0,0,41.76,88.87H64v10.8A23.42,23.42,0,0,1,25.75,79.34c1.21-12.58,11.79-21,24.46-21.18Z" transform="translate(-9.16 -11.59)"/></svg>